<svg width="850" height="867" viewBox="0 0 850 867" fill="none" xmlns="http://www.w3.org/2000/svg">
    <circle cx="406" cy="406" r="406" fill="#893405" />
    <circle cx="444" cy="461" r="406" fill="#FC4706" />
    <path
        d="M692.527 298.728L703.32 282.518L670.899 260.931L660.106 277.142C656.446 282.538 652.405 287.667 648.016 292.489L520.925 207.871C523.681 201.961 526.854 196.255 530.422 190.797L541.215 174.586L508.794 153L498.001 169.21C457.474 230.079 469.467 281.316 488.925 326.944C439.322 326.592 387.424 335.289 346.897 396.157C306.37 457.026 318.364 508.263 337.821 553.891C288.218 553.539 236.32 562.235 195.793 623.104L185 639.315L217.421 660.901L228.214 644.69C231.874 639.294 235.914 634.165 240.304 629.343L367.394 713.962C364.639 719.871 361.465 725.577 357.898 731.035L347.105 747.246L379.526 768.832L390.319 752.622C430.846 691.753 418.852 640.516 399.395 594.888C448.998 595.24 500.896 586.544 541.423 525.675C581.95 464.806 569.956 413.569 550.499 367.941C600.101 368.293 651.999 359.597 692.527 298.728ZM509.002 504.089C505.342 509.485 501.302 514.614 496.912 519.436L369.822 434.818C375.251 422.934 382.538 411.99 391.408 402.397L518.498 487.015C515.743 492.925 512.569 498.63 509.002 504.089ZM378.024 674.245L272.847 604.218C299.253 593.855 327.798 590.125 355.98 593.356C369.831 618.111 377.4 645.886 378.024 674.245ZM381.236 555.423C367.385 530.668 359.816 502.894 359.192 474.534L464.369 544.562C437.963 554.925 409.418 558.654 381.236 555.423ZM529.128 447.299L423.951 377.271C450.357 366.908 478.901 363.178 507.084 366.409C520.935 391.164 528.504 418.939 529.128 447.299ZM532.34 328.476C518.489 303.721 510.92 275.947 510.296 247.587L615.473 317.615C589.066 327.978 560.522 331.707 532.34 328.476Z"
        fill="white" />
</svg>